<svg width="20" height="20" viewBox="0 0 20 20" fill="none" xmlns="http://www.w3.org/2000/svg">
<path d="M9.99988 20C4.47688 20 -0.00012207 15.523 -0.00012207 10C-0.00012207 4.477 4.47688 0 9.99988 0C15.5229 0 19.9999 4.477 19.9999 10C19.9999 15.523 15.5229 20 9.99988 20ZM9.99988 18C12.1216 18 14.1564 17.1571 15.6567 15.6569C17.157 14.1566 17.9999 12.1217 17.9999 10C17.9999 7.87827 17.157 5.84344 15.6567 4.34315C14.1564 2.84285 12.1216 2 9.99988 2C7.87815 2 5.84331 2.84285 4.34302 4.34315C2.84273 5.84344 1.99988 7.87827 1.99988 10C1.99988 12.1217 2.84273 14.1566 4.34302 15.6569C5.84331 17.1571 7.87815 18 9.99988 18ZM5.99988 11H13.9999C13.9999 12.0609 13.5785 13.0783 12.8283 13.8284C12.0782 14.5786 11.0607 15 9.99988 15C8.93901 15 7.9216 14.5786 7.17145 13.8284C6.42131 13.0783 5.99988 12.0609 5.99988 11ZM5.99988 9C5.60205 9 5.22052 8.84196 4.93922 8.56066C4.65791 8.27936 4.49988 7.89782 4.49988 7.5C4.49988 7.10218 4.65791 6.72064 4.93922 6.43934C5.22052 6.15804 5.60205 6 5.99988 6C6.3977 6 6.77923 6.15804 7.06054 6.43934C7.34184 6.72064 7.49988 7.10218 7.49988 7.5C7.49988 7.89782 7.34184 8.27936 7.06054 8.56066C6.77923 8.84196 6.3977 9 5.99988 9ZM13.9999 9C13.6021 9 13.2205 8.84196 12.9392 8.56066C12.6579 8.27936 12.4999 7.89782 12.4999 7.5C12.4999 7.10218 12.6579 6.72064 12.9392 6.43934C13.2205 6.15804 13.6021 6 13.9999 6C14.3977 6 14.7792 6.15804 15.0605 6.43934C15.3418 6.72064 15.4999 7.10218 15.4999 7.5C15.4999 7.89782 15.3418 8.27936 15.0605 8.56066C14.7792 8.84196 14.3977 9 13.9999 9Z" fill="black"/>
</svg>
