<svg width="32" height="32" viewBox="0 0 32 32" fill="none" xmlns="http://www.w3.org/2000/svg">
<mask id="mask0_18_10785" style="mask-type:alpha" maskUnits="userSpaceOnUse" x="0" y="0" width="32" height="32">
<rect width="32" height="32" fill="url(#paint0_angular_18_10785)"/>
</mask>
<g mask="url(#mask0_18_10785)">
<path fill-rule="evenodd" clip-rule="evenodd" d="M16 1C14.8954 1 14 1.89543 14 3V9C14 10.1046 14.8954 11 16 11C17.1046 11 18 10.1046 18 9V3C18 1.89543 17.1046 1 16 1ZM26.6066 5.3934C25.8255 4.61235 24.5592 4.61235 23.7782 5.3934L19.5355 9.63604C18.7545 10.4171 18.7545 11.6834 19.5355 12.4645C20.3166 13.2455 21.5829 13.2455 22.364 12.4645L26.6066 8.22183C27.3876 7.44078 27.3876 6.17445 26.6066 5.3934ZM29 14C30.1046 14 31 14.8954 31 16C31 17.1046 30.1046 18 29 18H23C21.8954 18 21 17.1046 21 16C21 14.8954 21.8954 14 23 14H29ZM26.6066 26.6066C27.3876 25.8255 27.3876 24.5592 26.6066 23.7782L22.364 19.5355C21.5829 18.7545 20.3166 18.7545 19.5355 19.5355C18.7545 20.3166 18.7545 21.5829 19.5355 22.364L23.7782 26.6066C24.5592 27.3876 25.8256 27.3876 26.6066 26.6066ZM14 23C14 21.8954 14.8954 21 16 21C17.1046 21 18 21.8954 18 23V29C18 30.1046 17.1046 31 16 31C14.8954 31 14 30.1046 14 29V23ZM12.4645 19.5356C11.6834 18.7545 10.4171 18.7545 9.63605 19.5356L5.39341 23.7782C4.61236 24.5592 4.61236 25.8256 5.39341 26.6066C6.17446 27.3877 7.44079 27.3877 8.22184 26.6066L12.4645 22.364C13.2455 21.5829 13.2455 20.3166 12.4645 19.5356ZM9 14C10.1046 14 11 14.8954 11 16C11 17.1046 10.1046 18 9 18H3C1.89543 18 1 17.1046 1 16C1 14.8954 1.89543 14 3 14H9ZM12.4645 12.4644C13.2455 11.6834 13.2455 10.4171 12.4645 9.63602L8.22184 5.39338C7.44079 4.61233 6.17446 4.61233 5.39341 5.39338C4.61236 6.17443 4.61236 7.44076 5.39341 8.2218L9.63605 12.4644C10.4171 13.2455 11.6834 13.2455 12.4645 12.4644Z" fill="#AEAEB2"/>
</g>
<defs>
<radialGradient id="paint0_angular_18_10785" cx="0" cy="0" r="1" gradientUnits="userSpaceOnUse" gradientTransform="translate(16 16) rotate(-66.8014) scale(15.2315)">
<stop/>
<stop offset="1" stop-opacity="0"/>
</radialGradient>
</defs>
</svg>
