<svg width="91" height="105" viewBox="0 0 91 105" fill="none" xmlns="http://www.w3.org/2000/svg">
<path d="M44.7975 7.56548L44.6563 9.58147L39.1138 9.16309L39.7536 0L45.2337 0.413508L45.0928 2.42918L41.6286 2.16795L41.5225 3.68578L44.6721 3.9237L44.5329 5.91311L41.3835 5.67552L41.2702 7.29872L44.7975 7.56548Z" fill="black"/>
<path d="M67.6417 14.3135C66.2864 16.4981 63.6547 17.1485 61.567 15.8003L58.5381 13.8446L63.3321 6.12146L66.3606 8.07722C68.449 9.42503 68.9977 12.1288 67.6417 14.3135ZM65.9759 13.2379C66.7979 11.9137 66.4964 10.5443 65.3062 9.7757L64.0081 8.93756L61.3234 13.2628L62.6217 14.1009C63.8119 14.8698 65.1545 14.5619 65.9759 13.2379Z" fill="black"/>
<path d="M77.4126 27.2218L82.8048 24.2206L83.8135 26.0478L78.581 28.9602C77.9781 29.2958 77.6243 29.8661 78.1602 30.837C78.6958 31.808 79.3657 31.8086 79.9687 31.4727L85.2012 28.5603L86.2107 30.3875L80.8184 33.3887C79.1121 34.3381 77.3566 33.5836 76.3852 31.8246C75.4139 30.0659 75.7062 28.1715 77.4126 27.2218Z" fill="black"/>
<path d="M86.4007 48.1749C88.9602 48.1315 90.9557 50.0509 90.9992 52.7428C91.0263 54.3628 90.267 55.8057 89.0497 56.6046L88.0266 54.8609C88.6915 54.4543 89.0767 53.6821 89.0617 52.7763C89.0357 51.1947 87.9874 50.1919 86.434 50.219C84.8812 50.2455 83.8665 51.2837 83.8923 52.8659C83.9075 53.7717 84.3176 54.5426 84.9952 54.9139L84.0299 56.6911C82.7874 55.9466 81.9809 54.5318 81.9539 52.8988C81.9097 50.2079 83.841 48.2186 86.4007 48.1749Z" fill="black"/>
<path d="M76.9857 75.8L78.5612 72.9574L77.564 71.9118L78.6243 69.9988L84.8806 76.8175L83.6442 79.0479L74.5034 77.4317L75.564 75.5187L76.9857 75.8ZM78.9264 76.1785L82.2498 76.8303L79.9204 74.3857L78.9264 76.1785Z" fill="black"/>
<path d="M64.3016 96.3212L66.1627 95.0117L62.2637 89.2606L63.9184 88.0962L67.8172 93.848L69.6789 92.5386L70.7783 94.1603L65.402 97.9438L64.3016 96.3212Z" fill="black"/>
<path d="M46.8766 104.597L45.2339 95.9067L47.3163 95.5481L48.959 104.239L46.8766 104.597Z" fill="black"/>
<path d="M29.3496 100.339C28.6394 102.94 26.1514 104.339 23.7562 103.604C21.3604 102.87 19.9629 100.278 20.6737 97.678C21.3843 95.0771 23.8719 93.6774 26.2674 94.4124C28.663 95.1471 30.0605 97.7371 29.3496 100.339ZM22.5805 98.2625C22.1494 99.8413 22.9359 101.218 24.2946 101.635C25.653 102.052 27.0118 101.332 27.4432 99.7539C27.8739 98.1758 27.0878 96.7988 25.7293 96.3815C24.3709 95.9652 23.0119 96.6847 22.5805 98.2625Z" fill="black"/>
<path d="M0 88.6775L6.08128 82.2415L7.19252 83.2754L6.39243 89.0986L9.69372 85.6038L11.1754 86.9837L5.09419 93.4198L3.98264 92.3859L4.78273 86.5634L1.48175 90.0568L0 88.6775Z" fill="black"/>
<path d="M69.1816 56.1579C69.8487 55.143 69.834 53.54 69.621 53.2402C71.4339 53.0423 70.0613 55.8468 69.1816 56.1579Z" fill="black"/>
<path d="M44.8748 49.2972C44.6545 48.8561 43.9301 48.6058 44.0379 47.865C44.0411 47.8418 44.0142 47.8144 43.998 47.7908C43.8464 47.5685 43.7036 47.5844 43.5499 47.8188C43.1767 48.3908 42.7924 48.9561 42.408 49.5176C41.3502 51.0597 37.4009 56.1608 36.0372 56.3299C35.7678 56.3631 35.6554 56.1541 35.6369 55.9229C35.5628 55.0554 36.42 52.8623 37.7269 51.1826C36.4741 53.4563 36.2725 54.835 36.5347 55.1477C37.4632 51.6785 40.5299 48.4071 43.0764 46.1863C43.1289 46.1315 43.1748 46.087 43.1739 46.0389C43.1658 45.2936 42.0911 44.4729 40.8977 44.5219C41.0583 43.9968 40.6187 43.6343 40.2778 43.649C39.9427 44.2866 38.1518 47.0507 37.1759 48.1338C34.5988 51.0326 30.8696 54.0196 26.8797 55.7375C26.8019 55.7777 27.6031 56.572 29.2574 55.7885C29.2224 55.8719 28.7662 56.2837 28.3493 56.336C28.5771 56.5446 29.4646 56.5669 30.1693 56.3341C31.7536 55.8137 34.2076 53.1964 34.9398 52.2152C34.4954 52.9798 32.6083 55.9468 32.2408 58.2796C32.0489 59.4988 32.1883 60.5068 32.8883 60.6116C33.0245 61.7766 33.8882 62.6212 34.5135 62.5399C34.6204 62.5266 34.7313 62.438 34.7641 62.267C35.3798 59.0653 39.6387 53.7152 40.0275 54.2572C38.6653 56.1207 37.4478 59.716 38.055 61.4195C38.4181 62.4441 39.9515 62.8374 41.9412 62.0301C40.3512 61.258 40.7099 57.3083 41.3227 55.7618C40.8274 58.2729 41.1452 60.5062 41.8058 61.0262L41.8452 60.9998C40.823 56.286 43.1586 51.8549 44.8501 50.0231C45.0007 49.7609 45.0051 49.5578 44.8748 49.2972Z" fill="black"/>
<path d="M23.063 67.047C21.1962 67.3935 20.2609 63.9112 23.013 62.742C23.7386 62.434 24.9968 62.4283 25.0118 63.1792C21.6242 63.9046 21.6711 66.7987 23.063 67.047Z" fill="black"/>
<path d="M29.003 32.4695C16.5199 35.4566 3.6257 46.3001 10.3692 48.9709C8.39736 45.7303 13.7365 37.6223 29.003 32.4695Z" fill="black"/>
<path d="M18.8637 71.5834C19.5332 71.4687 19.5772 70.8751 19.1318 70.5062C18.1841 69.7203 17.7991 68.385 18.2288 67.6024C17.6455 68.0349 17.0392 69.202 17.408 70.3554C17.6375 71.0751 18.2687 71.6859 18.8637 71.5834Z" fill="black"/>
<path d="M34.0392 42.8281C32.8219 44.69 27.9463 47.4828 23.1305 47.3799C23.8828 48.7904 25.6148 50.0947 28.9158 49.5309C35.858 48.3435 44.2049 39.4249 43.6072 33.3245C43.5811 33.3245 43.555 33.3245 43.5296 33.3245C43.3473 35.3288 42.0486 38.2041 40.8335 39.1975C41.5575 38.2819 42.9058 35.7943 42.874 33.1892C42.7973 26.755 34.3058 24.9664 24.4706 29.1127C24.4311 29.1296 30.094 27.5369 32.5799 27.8535C17.5392 30.1947 5.63327 41.2732 5.33014 48.6947C4.79735 61.752 29.9031 55.1521 29.0857 63.184C30.3428 59.2473 22.9533 56.9677 22.0983 56.397C22.1912 56.3564 22.2577 56.3577 22.319 56.3703C24.4283 56.7908 29.5459 59.0457 29.6623 62.0141C29.8612 67.0893 22.814 68.231 21.4237 67.1931C21.6292 67.9839 23.2988 68.9821 25.1109 68.5397C24.2918 68.978 20.8148 68.9906 20.6453 66.3433C20.5428 64.7462 21.3292 63.7131 21.3292 63.7131C21.1746 63.7258 20.8326 64.2139 20.7245 64.4232C20.6504 64.5646 20.5788 64.677 20.3835 64.6643C20.2989 64.6595 20.1625 64.7281 20.1211 64.8088C18.6897 67.5584 20.7023 70.8012 24.5959 70.5128C27.1384 70.3255 28.8484 69.138 29.545 68.3873C29.169 68.6429 28.4625 69.0865 27.9183 69.1638C27.91 69.1424 27.9014 69.1208 27.8926 69.0999C29.7202 68.0376 31.2334 66.4684 31.4974 64.3511C32.9071 53.0916 9.25054 54.4239 8.13629 47.761C6.64765 38.8624 34.5176 26.884 41.0263 32.5598C40.2896 28.8958 30.5816 30.5222 30.5791 30.4952C35.3268 28.9197 41.7225 29.215 41.8717 33.0406C41.9923 36.1024 36.0101 43.663 24.5721 46.1401C26.8797 46.9014 31.8151 44.799 34.0392 42.8281Z" fill="black"/>
<path d="M68.5166 52.4762C68.0186 51.212 62.7344 51.7272 59.6167 53.0877C59.5494 52.9346 59.4787 52.7897 59.4019 52.6579C60.2894 50.3698 62.984 46.1905 65.8682 43.3416C66.3664 42.8503 66.8694 42.3992 67.3698 42.0032C67.4289 41.1505 65.1857 40.0429 63.7057 41.2577C61.8986 43.2012 60.0426 46.9868 59.2209 48.7806L59.0496 48.7864C59.4293 46.7782 61.4421 43.1188 62.6716 41.9221C61.0624 41.9795 57.6815 48.7585 55.8614 54.9926H55.8577C53.9382 55.8123 50.3631 58.0031 49.1409 59.3164C49.0724 59.3903 48.9841 59.1202 48.9781 59.0238C48.77 55.7124 52.6557 53.314 55.7401 51.121C56.1299 50.8434 55.864 50.0281 55.7005 49.8863C54.539 51.62 51.3634 53.439 49.9092 55.4306C50.9635 53.3651 55.5468 50.4154 55.4757 49.2672C55.3729 47.6068 53.2903 45.8925 52.3985 45.4363C52.5611 45.1526 52.9653 44.3658 52.8302 43.5274C52.6758 42.5675 51.6891 42.1459 50.8551 42.2274C51.005 42.7891 50.8413 43.6665 50.6888 44.1306C49.0655 43.0205 46.5419 42.8512 46.519 44.2704C47.6418 43.456 49.9683 44.0476 50.9943 44.7542C46.4658 43.2665 45.3049 45.7451 45.889 47.0571C45.889 47.0571 47.7757 46.9994 49.29 47.5662C48.9492 48.5445 46.6928 53.0922 44.1129 55.9195C44.2955 55.8605 44.471 55.8228 44.6285 55.7508C44.9403 55.6116 47.8021 51.7259 48.594 50.5175C48.6097 50.5936 47.9586 51.9649 46.7566 53.8355C48.0923 52.2803 50.2468 48.8875 50.7863 48.018C50.7863 48.018 52.3665 48.645 52.4363 49.764C52.5526 51.659 44.3433 56.2152 44.4662 59.7187C44.4882 60.3625 44.8193 61.3005 45.4838 61.9101C45.2147 61.3642 45.0821 60.6487 45.1691 59.8473C45.2898 58.735 45.8359 57.4585 47.0364 56.2447C44.8271 59.0206 45.6073 61.5341 46.081 62.2227C38.8698 62.6854 33.0305 65.2794 33.0028 69.3091C33.0198 69.3982 32.9443 69.5199 32.8887 69.6077C32.1632 70.7692 32.4794 72.2173 32.9745 72.3925C36.3711 68.2405 42.1948 64.8502 47.307 63.8771C47.307 63.7807 46.8949 63.7959 46.2247 63.903C43.7501 64.2559 40.6167 65.1605 38.0928 66.6964C38.0243 64.5577 47.1932 62.3903 52.9672 63.2199C53.0615 62.3707 51.275 62.0419 49.2884 62.0087C50.2327 58.2126 56.1513 55.068 58.429 54.2809C56.1818 55.2487 52.5705 57.5032 50.961 59.959C52.4816 58.5848 54.5056 57.1005 55.3622 56.699C53.2514 65.5422 55.4883 69.1395 57.0852 69.0825C58.1955 69.0444 59.2244 67.8817 59.8666 65.2182C59.3624 66.4137 58.7208 67.2191 58.1122 67.2407C56.6011 67.294 56.4018 65.0281 56.4018 65.0281C57.3659 67.5162 60.1404 65.5793 60.444 61.1398C60.4644 60.8326 60.4843 60.5182 60.4988 60.1903C60.5645 58.7464 60.5025 56.962 60.2444 55.4008C62.4053 54.7313 65.9046 54.6841 66.8493 55.4221C67.0828 54.1053 64.6809 53.7955 60.7898 54.6556C63.4244 53.7914 67.1488 53.4865 67.3949 54.7555C67.5197 55.3986 67.1523 56.3487 66.8716 56.7148C66.7364 56.8907 67.184 56.7567 67.3022 56.6032C67.9536 55.7587 69.0245 53.7629 68.5166 52.4762ZM57.9412 64.26C56.741 64.3323 56.9431 59.6248 58.3828 55.864C58.5162 55.8053 58.6676 55.7524 58.8318 55.7023C59.0804 58.5981 58.6177 61.6951 58.1402 63.056C58.8264 63.0319 59.5799 60.0071 59.5365 57.1345L59.6783 57.1301C60.0646 61.7027 58.6966 64.2327 57.9412 64.26Z" fill="black"/>
</svg>
