<svg width="18" height="19" viewBox="0 0 18 19" fill="none" xmlns="http://www.w3.org/2000/svg">
<path d="M17.9999 18C17.9999 18.2652 17.8945 18.5196 17.707 18.7071C17.5194 18.8947 17.2651 19 16.9999 19H0.999878C0.734662 19 0.480308 18.8947 0.292771 18.7071C0.105235 18.5196 -0.00012183 18.2652 -0.00012183 18V7.49003C-0.000227554 7.33764 0.0344951 7.18724 0.101394 7.05033C0.168293 6.91341 0.265598 6.79359 0.385878 6.70003L8.38588 0.478028C8.56142 0.341473 8.77748 0.267334 8.99988 0.267334C9.22228 0.267334 9.43834 0.341473 9.61388 0.478028L17.6139 6.70003C17.7342 6.79359 17.8315 6.91341 17.8984 7.05033C17.9653 7.18724 18 7.33764 17.9999 7.49003V18ZM15.9999 17V7.97803L8.99988 2.53403L1.99988 7.97803V17H15.9999Z" fill="black"/>
</svg>
