<svg width="22" height="20" viewBox="0 0 22 20" fill="none" xmlns="http://www.w3.org/2000/svg">
<path d="M11 20L1.808 10.808C-0.371997 8.24002 -0.257997 4.38802 2.161 1.96802C3.32102 0.808033 4.87675 0.129571 6.51611 0.0687369C8.15547 0.00790306 9.75721 0.569198 11 1.64002C12.2415 0.569198 13.8419 0.0071083 15.4803 0.0663876C17.1188 0.125667 18.6743 0.801936 19.8353 1.95968C20.9962 3.11742 21.6767 4.67111 21.7404 6.30941C21.8042 7.9477 21.2464 9.54957 20.179 10.794L11 20ZM18.662 9.49102C19.4008 8.62943 19.7868 7.52046 19.7426 6.38632C19.6983 5.25218 19.2272 4.17665 18.4235 3.37522C17.6198 2.5738 16.5429 2.10567 15.4086 2.06465C14.2744 2.02363 13.1665 2.41274 12.307 3.15402L11 4.28202L9.693 3.15402C8.83351 2.41274 7.72564 2.02363 6.59138 2.06465C5.45712 2.10567 4.38026 2.5738 3.57655 3.37522C2.77285 4.17665 2.30167 5.25218 2.25744 6.38632C2.2132 7.52046 2.59917 8.62943 3.338 9.49102L3.452 9.62302L11 17.172L18.548 9.62302L18.662 9.49102Z" fill="#F0F0F0"/>
</svg>
