<svg width="159" height="234" viewBox="0 0 159 234" fill="none" xmlns="http://www.w3.org/2000/svg">
<g opacity="0.05">
<path d="M14.929 45.894L16.1567 49.2284L6.96747 52.5552L1.38438 37.4008L10.4698 34.1113L11.6978 37.445L5.9546 39.5247L6.87921 42.0351L12.1012 40.1448L13.3128 43.4353L8.09153 45.3258L9.0805 48.0104L14.929 45.894Z" fill="black"/>
<path d="M56.4261 40.2376C55.8286 44.7183 52.0779 47.6593 47.7578 47.0033L41.4904 46.0519L43.607 30.2102L49.8739 31.1619C54.1948 31.8167 57.0248 35.7565 56.4261 40.2376ZM52.9793 39.7145C53.3422 36.9982 51.871 35.0198 49.4082 34.6459L46.7223 34.2382L45.5369 43.1101L48.2234 43.5175C50.6864 43.892 52.6171 42.43 52.9793 39.7145Z" fill="black"/>
<path d="M81.4042 53.8884L87.886 45.1868L90.8214 47.3891L84.5317 55.8332C83.807 56.8062 83.651 57.9759 85.2106 59.1462C86.7698 60.3167 87.8445 59.8346 88.569 58.8611L94.8587 50.417L97.7953 52.6188L91.3136 61.3205C89.2622 64.0735 85.9031 64.1299 83.0768 62.01C80.2507 59.8906 79.3531 56.642 81.4042 53.8884Z" fill="black"/>
<path d="M110.93 81.0037C115.002 79.088 119.587 80.7265 121.598 85.0115C122.81 87.5896 122.633 90.4509 121.257 92.6099L118.359 90.552C119.132 89.4203 119.193 87.9044 118.515 86.4627C117.333 83.9453 114.929 83.0935 112.457 84.2574C109.986 85.4199 109.108 87.8164 110.291 90.335C110.968 91.7764 112.182 92.7168 113.536 92.8233L113.27 96.3693C110.741 96.0717 108.427 94.3848 107.206 91.7858C105.195 87.5027 106.857 82.92 110.93 81.0037Z" fill="black"/>
<path d="M115.757 132.091L116.233 126.397L113.88 125.439L114.201 121.607L129.151 128.028L128.777 132.497L112.954 136.498L113.275 132.666L115.757 132.091ZM119.142 131.298L124.941 129.946L119.443 127.707L119.142 131.298Z" fill="black"/>
<path d="M110.22 174.145L112.26 170.703L101.86 164.294L103.673 161.233L114.074 167.644L116.114 164.201L119.047 166.009L113.155 175.953L110.22 174.145Z" fill="black"/>
<path d="M88.2488 199.984L79.3465 187.233L82.4271 185.156L91.3294 197.907L88.2488 199.984Z" fill="black"/>
<path d="M57.0733 205.797C57.8105 210.48 54.8301 214.518 50.4598 215.068C46.0886 215.619 41.9782 212.47 41.2425 207.788C40.5059 203.105 43.4852 199.066 47.8566 198.517C52.2277 197.967 56.3367 201.113 57.0733 205.797ZM44.7216 207.35C45.169 210.193 47.423 211.832 49.9026 211.521C52.3813 211.21 54.0411 209.076 53.5945 206.234C53.147 203.393 50.8932 201.752 48.414 202.063C45.9355 202.375 44.2753 204.509 44.7216 207.35Z" fill="black"/>
<path d="M1.60014 208.267L6.70929 193.561L9.23688 194.417L12.154 204.332L14.927 196.347L18.2982 197.491L13.1891 212.197L10.661 211.341L7.74434 201.428L4.97097 209.41L1.60014 208.267Z" fill="black"/>
</g>
</svg>
