<svg width="22" height="20" viewBox="0 0 22 20" fill="none" xmlns="http://www.w3.org/2000/svg">
<path d="M20.179 10.794L20.192 10.808L11 20L1.80803 10.808L1.82103 10.794C0.753595 9.54957 0.195871 7.9477 0.259619 6.30941C0.323367 4.67111 1.00388 3.11742 2.16478 1.95968C3.32569 0.801936 4.88123 0.125667 6.51969 0.0663876C8.15815 0.0071083 9.75849 0.569198 11 1.64002C12.2416 0.569198 13.8419 0.0071083 15.4804 0.0663876C17.1188 0.125667 18.6744 0.801936 19.8353 1.95968C20.9962 3.11742 21.6767 4.67111 21.7404 6.30941C21.8042 7.9477 21.2465 9.54957 20.179 10.794Z" fill="#F0F0F0"/>
</svg>
